<svg width="172" height="64" viewBox="0 0 172 64" fill="none" xmlns="http://www.w3.org/2000/svg">
<g clip-path="url(#clip0-477380)">
<path d="M27.2268 41.0185H25.4694L23.3656 39.0879L23.3656 38.0979L25.5437 36.0188L25.5437 32.7269L28.3901 30.8705L31.6324 33.3209L27.2268 41.0185ZM19.9499 35.8208L20.2717 32.7269L19.2074 29.9547H25.4942L24.4546 32.7269L24.7516 35.8208H22.326H19.9499ZM21.3855 39.0879L19.2817 41.0432H17.4996L13.0691 33.3209L16.3363 30.8953L19.2074 32.7269L19.2074 36.0188L21.3855 38.0979L21.3855 39.0879ZM17.4748 24.2372H27.202L28.3653 29.1875H16.3363L17.4748 24.2372ZM22.3508 18.0742L10 25.2025L10 39.4592L22.3508 46.5875L34.7016 39.4592L34.7016 25.2025L22.3508 18.0742Z" fill="#000000"/>
<path d="M48.5625 38.9402C45.2954 38.9402 42.8945 36.3909 42.8945 33.2475C42.8945 30.1041 45.3201 27.4805 48.5873 27.4805C50.6664 27.4805 51.9534 28.2478 52.9682 29.3616L51.4089 31.0446C50.6416 30.2278 49.8248 29.6833 48.5625 29.6833C46.7309 29.6833 45.3944 31.2674 45.3944 33.198C45.3944 35.1781 46.7557 36.7621 48.6863 36.7621C49.8743 36.7621 50.7406 36.1929 51.5327 35.4008L53.0425 36.9106C51.9534 38.0739 50.6911 38.9402 48.5625 38.9402Z" fill="#000000"/>
<path d="M57.8176 38.939H55.293L55.293 27.504H57.8176L57.8176 30.1772C58.5106 28.5436 59.7729 27.405 61.7035 27.504L61.7035 30.1772H61.555C59.3521 30.1772 57.8176 31.6127 57.8176 34.5333L57.8176 38.939Z" fill="#000000"/>
<path d="M74.8934 27.4531L69.3245 42.0068H66.7751L67.9879 38.9376L63.2109 27.4531H65.9088L69.1512 35.9427L72.2698 27.4531H74.8934Z" fill="#000000"/>
<path d="M82.3203 29.656C80.6125 29.656 79.1275 31.042 79.1275 33.1954C79.1275 35.3487 80.6373 36.7348 82.3203 36.7348C84.0529 36.7348 85.4637 35.3735 85.4637 33.1954C85.4637 31.0173 84.0282 29.656 82.3203 29.656ZM82.8896 38.9129C81.0828 38.9129 79.9442 37.9971 79.177 36.9823L79.177 42.0068H76.6523L76.6523 27.4531H79.177L79.177 29.5075C79.9937 28.3689 81.1323 27.4531 82.8896 27.4531C85.4885 27.4531 88.0131 29.5075 88.0131 33.1706C88.0131 36.8338 85.5132 38.9129 82.8896 38.9129Z" fill="#000000"/>
<path d="M93.5318 29.8546L93.5318 35.2504C93.5318 36.2156 94.0268 36.6117 94.8931 36.6117H95.8831L95.8831 38.864H94.1505C92.319 38.864 91.0072 38.0472 91.0072 35.6464L91.0072 29.8546H89.6211L89.6211 27.7013H91.0072L91.0072 24.6816H93.5318L93.5318 27.7013H95.8831L95.8831 29.8546H93.5318Z" fill="#000000"/>
<path d="M103.828 29.6586C101.799 29.6586 100.512 31.2426 100.512 33.1732C100.512 35.1286 101.898 36.7374 103.853 36.7374C105.883 36.7374 107.17 35.1533 107.17 33.2227C107.219 31.2674 105.808 29.6586 103.828 29.6586ZM103.828 38.9402C100.487 38.9402 98.0117 36.3909 98.0117 33.2475C98.0117 30.0793 100.512 27.4805 103.878 27.4805C107.244 27.4805 109.719 30.0298 109.719 33.198C109.719 36.3166 107.244 38.9402 103.828 38.9402Z" fill="#000000"/>
<path d="M133.801 29.6586C131.771 29.6586 130.484 31.2426 130.484 33.1732C130.484 35.1286 131.87 36.7374 133.826 36.7374C135.855 36.7374 137.142 35.1533 137.142 33.2227C137.167 31.2674 135.781 29.6586 133.801 29.6586ZM133.801 38.9402C130.459 38.9402 127.984 36.3909 127.984 33.2475C127.984 30.0793 130.484 27.4805 133.85 27.4805C137.217 27.4805 139.692 30.0298 139.692 33.198C139.692 36.3166 137.192 38.9402 133.801 38.9402Z" fill="#000000"/>
<path d="M154.644 27.4531C157.045 27.4531 158.505 28.9629 158.505 31.6608L158.505 38.9129H155.981L155.981 32.4281C155.981 30.6708 155.164 29.755 153.753 29.755C152.392 29.755 151.402 30.7203 151.402 32.4776L151.402 38.9376H148.877L148.877 32.4281C148.877 30.7203 148.035 29.755 146.649 29.755C145.263 29.755 144.298 30.7945 144.298 32.5023L144.298 38.9376H141.773L141.773 27.4779H144.298L144.298 29.359C145.016 28.3937 145.956 27.4779 147.639 27.4779C149.224 27.4779 150.313 28.2452 150.907 29.4085C151.822 28.2204 152.986 27.4531 154.644 27.4531Z" fill="#000000"/>
<path d="M114.348 36.6117L114.348 37.8987L114.273 38.0225L113.159 38.6413H113.011L111.922 38.0225L111.848 37.8987L111.848 36.6117L111.922 36.4879L113.011 35.8691H113.159L114.273 36.4879L114.348 36.6117Z" fill="#000000"/>
<path d="M121.996 38.9144C118.728 38.8402 116.377 36.2413 116.427 33.0979C116.476 29.9545 118.951 27.3804 122.243 27.4547C124.322 27.5042 125.609 28.2962 126.599 29.4348L125.015 31.0931C124.273 30.2763 123.456 29.6823 122.194 29.6575C120.362 29.6328 119.001 31.1674 118.976 33.1227C118.926 35.1028 120.263 36.7116 122.194 36.7363C123.382 36.7611 124.273 36.2166 125.065 35.4245L126.55 36.9591C125.436 38.1224 124.149 38.9639 121.996 38.9144Z" fill="#000000"/>
</g>
<defs>
<clipPath id="clip0-477380">
<rect width="161.377" height="28.7113" fill="white" transform="translate(5 18)"/>
</clipPath>
</defs>
</svg>