<svg width="171" height="64" viewBox="0 0 171 64" fill="none" xmlns="http://www.w3.org/2000/svg">
<g clip-path="url(#clip0-611269)">
<path d="M22.5997 29.7298L28.1416 24.1881L33.6865 29.7328L36.9112 26.5081L28.1416 17.7383L19.375 26.5052L22.5997 29.7298Z" fill="#000000"/>
<path d="M20.3262 31.9981L17.1016 28.7734L13.8768 31.9982L17.1014 35.2229L20.3262 31.9981Z" fill="#000000"/>
<path d="M22.6005 34.28L28.1425 39.8218L33.6871 34.2773L36.9136 37.5002L36.912 37.502L28.1425 46.2716L19.3756 37.505L19.3711 37.5005L22.6005 34.28Z" fill="#000000"/>
<path d="M39.1932 35.2189L42.418 31.9941L39.1933 28.7695L35.9685 31.9943L39.1932 35.2189Z" fill="#000000"/>
<path d="M31.4119 32.0008H31.4133L28.141 28.7285L25.7228 31.1468H25.7226L25.4449 31.4247L24.8717 31.9978L24.8672 32.0023L24.8717 32.0071L28.141 35.2764L31.4133 32.0041L31.4148 32.0023L31.4119 32.0008Z" fill="#000000"/>
<path d="M47.4414 24.6484H54.455C56.1957 24.6484 57.512 25.0952 58.4041 25.9886C59.0944 26.6806 59.4395 27.5382 59.4395 28.5613L59.4395 28.6045C59.4395 29.0368 59.3861 29.4189 59.2786 29.7502C59.1713 30.082 59.0279 30.3806 58.8488 30.6473C58.67 30.9141 58.4622 31.1483 58.226 31.3498C57.9896 31.5518 57.7355 31.7249 57.4635 31.8687C58.3385 32.2004 59.0273 32.6506 59.5294 33.2199C60.0314 33.7895 60.2827 34.5786 60.2827 35.5872L60.2827 35.6302C60.2827 36.3222 60.1497 36.9274 59.8835 37.4465C59.6174 37.9651 59.236 38.3976 58.7394 38.7436C58.2429 39.0896 57.6458 39.3488 56.948 39.5219C56.2502 39.6948 55.4769 39.7811 54.6283 39.7811H47.4414L47.4414 24.6484ZM53.7538 30.7663C54.489 30.7663 55.0728 30.6405 55.5048 30.3881C55.9371 30.1358 56.1533 29.7286 56.1533 29.1667L56.1533 29.1234C56.1533 28.6192 55.9658 28.2338 55.5912 27.9669C55.2163 27.7003 54.6758 27.5668 53.9699 27.5668H50.6839L50.6839 30.7663H53.7538ZM54.6402 36.8629C55.3752 36.8629 55.9513 36.7299 56.3697 36.4631C56.7875 36.1964 56.9967 35.7819 56.9967 35.2198L56.9967 35.1768C56.9967 34.6723 56.802 34.2725 56.4129 33.9768C56.0237 33.6817 55.3969 33.5339 54.532 33.5339H50.6839L50.6839 36.8631H54.6402L54.6402 36.8629Z" fill="#000000"/>
<path d="M64.4609 24.6484H67.7904L67.7904 39.7815H64.4609L64.4609 24.6484Z" fill="#000000"/>
<path d="M72.832 24.6484H75.9014L82.9925 33.9662L82.9925 24.6484H86.2785L86.2785 39.7815H83.4467L76.1178 30.1613L76.1178 39.7815H72.832L72.832 24.6484Z" fill="#000000"/>
<path d="M96.3611 24.543H99.4307L105.917 39.784H102.436L101.052 36.3901H94.6531L93.2696 39.784H89.875L96.3611 24.543ZM99.8633 33.4496L97.8525 28.5423L95.8425 33.4496H99.8633Z" fill="#000000"/>
<path d="M109.508 24.6504H112.578L119.669 33.9681L119.669 24.6504H122.955L122.955 39.7835H120.123L112.794 30.1633L112.794 39.7835H109.508L109.508 24.6504Z" fill="#000000"/>
<path d="M134.941 40.0326C133.831 40.0326 132.801 39.8306 131.849 39.4274C130.898 39.0242 130.076 38.4726 129.385 37.7735C128.693 37.0745 128.152 36.2494 127.763 35.2982C127.374 34.3468 127.18 33.3308 127.18 32.2498L127.18 32.2067C127.18 31.1257 127.374 30.1135 127.763 29.1693C128.152 28.2254 128.693 27.3966 129.385 26.6832C130.076 25.9699 130.905 25.4075 131.871 24.9969C132.836 24.5862 133.903 24.3809 135.07 24.3809C135.776 24.3809 136.421 24.4388 137.005 24.5537C137.589 24.6694 138.118 24.8276 138.594 25.0293C139.07 25.2313 139.509 25.4763 139.913 25.7643C140.316 26.0528 140.691 26.3697 141.037 26.7157L138.919 29.1585C138.327 28.6255 137.726 28.2071 137.113 27.9046C136.5 27.6022 135.812 27.4507 135.049 27.4507C134.414 27.4507 133.827 27.5733 133.287 27.8183C132.746 28.0633 132.281 28.4019 131.892 28.8342C131.503 29.2665 131.201 29.7675 130.984 30.3366C130.768 30.9062 130.66 31.515 130.66 32.1634L130.66 32.2065C130.66 32.8549 130.768 33.4678 130.984 34.0439C131.201 34.6207 131.499 35.1249 131.882 35.5572C132.263 35.9895 132.725 36.3321 133.265 36.5843C133.806 36.8367 134.4 36.9625 135.049 36.9625C135.914 36.9625 136.644 36.8041 137.243 36.4869C137.841 36.1702 138.436 35.7377 139.026 35.1898L141.145 37.3301C140.756 37.7482 140.352 38.1231 139.934 38.4542C139.516 38.7859 139.059 39.0704 138.561 39.3084C138.064 39.546 137.52 39.7265 136.93 39.8487C136.338 39.971 135.675 40.0326 134.941 40.0326Z" fill="#000000"/>
<path d="M145.062 24.6504H156.455L156.455 27.6123H148.349L148.349 30.6821H155.483L155.483 33.6438H148.349L148.349 36.8218H156.564L156.564 39.7835H145.062L145.062 24.6504Z" fill="#000000"/>
</g>
<defs>
<clipPath id="clip0-611269">
<rect width="142.615" height="28.5661" fill="white" transform="translate(14 17.7305) scale(0.998888 0.999027)"/>
</clipPath>
</defs>
</svg>