<svg width="300" height="300" viewBox="0 0 300 300" fill="none" xmlns="http://www.w3.org/2000/svg">
<path d="M145.394 17H155.475C186.383 32.9825 217.202 50.1354 247.934 68.4586C261.903 76.7645 269.076 83.7867 269.227 99.8699C269.504 133.949 269.429 167.185 269.001 199.578C268.774 218.493 257.788 225.779 243.706 233.632C217.832 248.004 192.75 262.35 168.462 276.672C156.003 283.996 143.331 283.769 130.444 275.992C107.691 262.275 81.7791 247.463 52.7085 231.556C41.2313 225.251 33.9826 217.813 31 204.297V94.3201C34.5489 80.3763 43.3959 71.0762 57.541 66.4199C58.6233 66.0424 59.5672 66.2689 60.3726 67.0995C71.8498 78.778 83.3144 90.4314 94.7664 102.06C117.746 125.417 122.377 151.492 108.66 180.286C105.64 186.553 100.769 191.197 96.7296 196.747C96.2609 197.393 95.9993 198.167 95.9791 198.969C95.9589 199.77 96.181 200.562 96.6164 201.239C98.7306 204.587 101.273 204.939 104.243 202.296C127.273 181.607 152.53 177.681 180.015 190.517C186.282 193.424 191.53 199.012 197.08 203.127C197.638 203.535 198.288 203.8 198.972 203.899C199.657 203.998 200.355 203.927 201.006 203.693C204.253 202.561 205.31 198.747 203.233 196.029C199.609 191.234 194.852 186.779 192.209 181.343C178.643 153.43 182.205 127.833 202.894 104.551C205.31 101.858 205.121 99.2784 202.327 96.8118C201.591 96.1645 200.659 95.7829 199.68 95.7281C198.701 95.6733 197.732 95.9486 196.929 96.5098C187.603 103.041 177.636 111.498 166.537 113.877C143.784 118.684 125.032 114.607 110.283 101.644C99.4353 92.1303 85.8187 78.8913 69.4335 61.9272C68.5023 60.9456 68.6029 60.0772 69.7355 59.3222C94.5525 43.2642 119.772 29.1568 145.394 17Z" fill="#171616"/>
</svg>
