<svg width="65" height="74" viewBox="0 0 65 74" fill="black" xmlns="http://www.w3.org/2000/svg">
<path fill-rule="evenodd" clip-rule="evenodd" d="M32.0429 2.56343L2.22 19.7817V54.2183L32.0429 71.4366L61.866 54.2183V19.7817L32.0429 2.56343ZM64.086 18.5L32.0429 0L0 18.5V55.5L32.0429 74L64.086 55.5V18.5Z" fill="black"/>
<path d="M38.5 33.25V32.9522L38.2381 32.8104L32.2381 29.5604L32 29.4314L31.7618 29.5604L25.7619 32.8104L25.5 32.9522V33.25V39.75V40.0478L25.7619 40.1896L31.7618 43.4396L32 43.5686L32.2381 43.4396L38.2381 40.1896L38.5 40.0478V39.75V33.25ZM26.9157 39.227V33.773L32 31.019L37.0843 33.773V39.227L32 41.981L26.9157 39.227Z" fill="black" stroke="black"/>
<path d="M45.5 46.25V45.9522L45.2381 45.8104L39.2381 42.5604L39 42.4314L38.7618 42.5604L32.7619 45.8104L32.5 45.9522V46.25V52.75V53.0478L32.7619 53.1896L38.7618 56.4396L39 56.5686L39.2381 56.4396L45.2381 53.1896L45.5 53.0478V52.75V46.25ZM33.9157 52.227V46.773L39 44.019L44.0843 46.773V52.227L39 54.981L33.9157 52.227Z" fill="black" stroke="black"/>
<path d="M45.5 20.25V19.9522L45.2381 19.8104L39.2381 16.5604L39 16.4314L38.7618 16.5604L32.7619 19.8104L32.5 19.9522V20.25V26.75V27.0478L32.7619 27.1896L38.7618 30.4396L39 30.5686L39.2381 30.4396L45.2381 27.1896L45.5 27.0478V26.75V20.25ZM33.9157 26.227V20.773L39 18.019L44.0843 20.773V26.227L39 28.981L33.9157 26.227Z" fill="black" stroke="black"/>
<path d="M53.5 33.25V32.9522L53.2381 32.8104L47.2381 29.5604L47 29.4314L46.7618 29.5604L40.7619 32.8104L40.5 32.9522V33.25V39.75V40.0478L40.7619 40.1896L46.7618 43.4396L47 43.5686L47.2381 43.4396L53.2381 40.1896L53.5 40.0478V39.75V33.25ZM41.9157 39.227V33.773L47 31.019L52.0843 33.773V39.227L47 41.981L41.9157 39.227Z" fill="black" stroke="black"/>
<path d="M30.5 20.25V19.9522L30.2381 19.8104L24.2381 16.5604L24 16.4314L23.7618 16.5604L17.7619 19.8104L17.5 19.9522V20.25V26.75V27.0478L17.7619 27.1896L23.7618 30.4396L24 30.5686L24.2381 30.4396L30.2381 27.1896L30.5 27.0478V26.75V20.25ZM18.9157 26.227V20.773L24 18.019L29.0843 20.773V26.227L24 28.981L18.9157 26.227Z" fill="black" stroke="black"/>
<path d="M23.5 33.25V32.9522L23.2381 32.8104L17.2381 29.5604L17 29.4314L16.7618 29.5604L10.7619 32.8104L10.5 32.9522V33.25V39.75V40.0478L10.7619 40.1896L16.7618 43.4396L17 43.5686L17.2381 43.4396L23.2381 40.1896L23.5 40.0478V39.75V33.25ZM11.9157 39.227V33.773L17 31.019L22.0843 33.773V39.227L17 41.981L11.9157 39.227Z" fill="black" stroke="black"/>
<path d="M30.5 46.25V45.9522L30.2381 45.8104L24.2381 42.5604L24 42.4314L23.7618 42.5604L17.7619 45.8104L17.5 45.9522V46.25V52.75V53.0478L17.7619 53.1896L23.7618 56.4396L24 56.5686L24.2381 56.4396L30.2381 53.1896L30.5 53.0478V52.75V46.25ZM18.9157 52.227V46.773L24 44.019L29.0843 46.773V52.227L24 54.981L18.9157 52.227Z" fill="black" stroke="black"/>
</svg>
