<svg width="300" height="300" viewBox="0 0 300 300" fill="none" xmlns="http://www.w3.org/2000/svg">
<path fill-rule="evenodd" clip-rule="evenodd" d="M275 149.5C275 218.262 219.262 274 150.5 274C81.7377 274 26 218.262 26 149.5C26 80.7377 81.7377 25 150.5 25C219.262 25 275 80.7377 275 149.5ZM154.355 182.186C153.349 201.488 145.347 221.289 127.156 231.603C120.869 235.17 113.825 237.493 106.8 238.656C91.2234 241.233 79.3002 228.285 74.5261 213.488C59.0637 165.634 48.8658 164.017 43.1957 163.117C39.4434 162.522 37.6741 162.241 37.6741 149.083C37.6741 110.68 57.3068 76.8016 87.2442 56.556C89.4326 55.0763 92.1572 57.7052 91.0702 60.0851C87.3687 68.2206 85.3049 77.223 85.3049 86.6945C85.3049 111.571 99.4931 133.238 120.337 144.324C136.829 153.091 155.312 163.789 154.355 182.186ZM92.1432 86.9292C92.1432 107.041 105.355 123.331 121.578 133.569C137.04 143.332 155.375 133.219 171.071 123.815C190.905 111.935 216.638 110.728 238.172 122.852C246.082 127.284 252.967 133.334 258.379 140.608C259.912 142.667 263.527 141.685 263.321 139.152C260.491 104.46 240.796 71.6636 207.545 52.9455C196.149 46.5321 195.036 47.8632 192.676 50.685C189.111 54.9485 182.701 62.6151 133.674 52.1123C118.518 48.8657 101.447 52.4379 96.0315 66.6165C93.5893 72.9995 92.148 79.9763 92.1432 86.9292ZM177.584 130.389C194.904 121.521 216.112 118.404 234.088 128.804C240.303 132.4 245.81 137.27 250.292 142.705C260.238 154.772 254.841 171.522 244.316 183.081C210.257 220.46 213.885 230.023 215.903 235.34C217.238 238.859 217.868 240.519 206.401 247.151C172.939 266.511 133.717 266.745 101.28 251.279C98.9095 250.144 99.8577 246.486 102.463 246.217C111.645 245.266 120.522 242.379 128.507 237.747C150.175 225.21 162.045 202.12 161.404 178.657C160.896 160.087 161.083 138.846 177.584 130.389Z" fill="#171616"/>
</svg>
