<svg width="300" height="300" viewBox="0 0 300 300" fill="none" xmlns="http://www.w3.org/2000/svg">
<mask id="mask0_3867_508" style="mask-type:luminance" maskUnits="userSpaceOnUse" x="21" y="70" width="260" height="159">
<path d="M280.92 70H21V229H280.92V70Z" fill="white"/>
</mask>
<g mask="url(#mask0_3867_508)">
<path d="M40.9696 72.9594H21V226.219H40.9696V72.9594Z" fill="black"/>
<path d="M115.311 170.311H105.029C83.7885 170.311 66.5117 152.697 66.5117 131.042V72.9119H125.605C146.845 72.9119 164.122 90.5258 164.122 112.18V127.382H144.152V112.18C144.152 101.757 135.828 93.2712 125.605 93.2712H86.4815V131.042C86.4815 141.466 94.805 149.952 105.029 149.952H115.311V170.311ZM166.115 186.82V168.528C166.115 146.874 148.838 129.26 127.598 129.26H115.311V149.619H127.598C137.822 149.619 146.145 158.105 146.145 168.528V186.82C146.145 197.243 137.822 205.729 127.598 205.729H86.4815V171.642H66.5117V226.088H127.598C148.838 226.088 166.115 208.474 166.115 186.82Z" fill="black"/>
<path d="M234.126 229H230.804C205.005 229 184.01 207.595 184.01 181.293V117.695C184.01 91.3934 205.005 69.9882 230.804 69.9882H234.126C259.925 69.9882 280.92 91.3934 280.92 117.695H260.951C260.951 102.625 248.92 90.3594 234.138 90.3594H230.815C216.033 90.3594 204.003 102.625 204.003 117.695V181.293C204.003 196.363 216.033 208.629 230.815 208.629H234.138C248.92 208.629 260.951 196.363 260.951 181.293H280.92C280.92 207.595 259.925 229 234.126 229Z" fill="black"/>
</g>
</svg>
