<svg width="400" height="200" viewBox="0 0 1961 217" fill="none" xmlns="http://www.w3.org/2000/svg">
<path d="M144.9 5.00269H0V31.2695H56.5881V184.978H0V211.531H144.9V184.978H88.3124V31.2695H144.9V5.00269V5.00269Z" fill="black"/>
<path d="M233.088 211.531V63.4371C233.088 54.2991 233.088 45.161 232.506 35.6951L299.572 211.531H345.391V5.00269H315.746V148.999C315.746 158.424 315.746 168.463 316.037 177.929L250.468 5.00269H203.484V211.531H233.088Z" fill="black"/>
<path d="M492.213 211.531V31.2695H559.278V5.00269H393.131V31.2695H460.488V211.531H492.213V211.531Z" fill="black"/>
<path d="M754.943 211.531V184.978H644.761V118.921H745.962V92.3675H644.761V31.2695H751.035V5.00269H613.036V211.531H754.943Z" fill="black"/>
<path d="M841.047 211.531V123.634H880.546C909.568 123.634 920.96 129.002 920.96 162.89V211.572H952.685V156.949C952.685 125.724 939.213 112.979 917.676 109.455C937.134 103.841 956.884 90.5235 956.884 59.2984C956.884 17.337 930.232 5.00269 890.733 5.00269H809.323V211.531H841.047ZM841.047 31.2695H883.54C909.901 31.2695 924.245 35.941 924.245 64.0108C924.245 89.9089 909.859 97.039 883.54 97.039H841.047V31.2695Z" fill="black"/>
<path d="M1087.61 216.281C1132.84 216.281 1157.33 195.096 1162.45 141.947H1129.52C1124.45 179.77 1113.34 190.055 1087.03 190.055C1055.3 190.055 1037.63 169.525 1037.63 107.444C1037.63 45.6494 1054.39 26.5946 1087.03 26.5946C1111.72 26.5946 1124.03 37.7406 1128.02 73.8012H1162.16C1158.37 23.2345 1133.01 0 1089.1 0C1035.51 0 1004.7 31.43 1004.7 107.403C1004.7 185.425 1034.01 216.281 1087.61 216.281Z" fill="black"/>
<path d="M1245.26 211.531V117.446H1323.39V211.572H1355.11V5.00269H1323.39V90.8514H1245.26V5.00269H1213.54V211.531H1245.26Z" fill="black"/>
<path d="M1571.74 211.531L1506.17 5.00269H1465.76L1400.81 211.531H1432.54L1450.21 151.949H1520.56L1537.94 211.531H1571.74ZM1478.36 57.5363C1481.06 48.1114 1483.43 39.8339 1485.55 30.9827C1487.63 39.8339 1489.75 47.7836 1492.74 57.5363L1512.78 125.683H1457.98L1478.36 57.5363Z" fill="black"/>
<path d="M1760.51 5.00269H1615.61V31.2695H1672.2V184.978H1615.61V211.531H1760.51V184.978H1703.92V31.2695H1760.51V5.00269Z" fill="black"/>
<path d="M1848.69 211.531V63.4371C1848.69 54.2991 1848.69 45.161 1848.11 35.6951L1915.18 211.531H1960.99V5.00269H1931.35V148.999C1931.35 158.424 1931.35 168.463 1931.64 177.929L1866.07 5.00269H1819.09V211.531H1848.69Z" fill="black"/>
</svg>
