<svg width="1920" height="1080" viewBox="0 0 1920 1080" fill="none" xmlns="http://www.w3.org/2000/svg">
<g clip-path="url(#clip0_8_796)">
<path d="M1919.73 72.2686H983.766V1007.73H1919.73V72.2686Z" stroke="white" stroke-miterlimit="10"/>
<path d="M1862.54 87.2236H956.503V992.772H1862.54V87.2236Z" stroke="white" stroke-miterlimit="10"/>
<path d="M1805.34 102.178H929.234V977.816H1805.34V102.178Z" stroke="white" stroke-miterlimit="10"/>
<path d="M1748.14 117.139H901.966V962.862H1748.14V117.139Z" stroke="white" stroke-miterlimit="10"/>
<path d="M1690.95 132.094H874.698V947.907H1690.95V132.094Z" stroke="white" stroke-miterlimit="10"/>
<path d="M1633.75 147.048H847.429V932.946H1633.75V147.048Z" stroke="white" stroke-miterlimit="10"/>
<path d="M1576.56 162.003H820.161V917.991H1576.56V162.003Z" stroke="white" stroke-miterlimit="10"/>
<path d="M1519.36 176.964H792.893V903.037H1519.36V176.964Z" stroke="white" stroke-miterlimit="10"/>
<path d="M1462.16 191.918H765.624V888.081H1462.16V191.918Z" stroke="white" stroke-miterlimit="10"/>
<path d="M1404.96 206.873H738.356V873.121H1404.96V206.873Z" stroke="white" stroke-miterlimit="10"/>
<path d="M1347.77 221.828H711.088V858.166H1347.77V221.828Z" stroke="white" stroke-miterlimit="10"/>
<path d="M1290.57 236.788H683.819V843.211H1290.57V236.788Z" stroke="white" stroke-miterlimit="10"/>
<path d="M1233.38 251.743H656.556V828.256H1233.38V251.743Z" stroke="white" stroke-miterlimit="10"/>
<path d="M1176.18 266.698H629.288V813.296H1176.18V266.698Z" stroke="white" stroke-miterlimit="10"/>
<path d="M1118.99 281.653H602.02V798.341H1118.99V281.653Z" stroke="white" stroke-miterlimit="10"/>
<path d="M1061.79 296.613H574.751V783.386H1061.79V296.613Z" stroke="white" stroke-miterlimit="10"/>
<path d="M1004.59 311.568H547.483V768.431H1004.59V311.568Z" stroke="white" stroke-miterlimit="10"/>
<path d="M947.392 326.523H520.215V753.471H947.392V326.523Z" stroke="white" stroke-miterlimit="10"/>
<path d="M890.198 341.479H492.946V738.516H890.198V341.479Z" stroke="white" stroke-miterlimit="10"/>
<path d="M832.998 356.438H465.678V723.561H832.998V356.438Z" stroke="white" stroke-miterlimit="10"/>
<path d="M775.804 371.394H438.41V708.606H775.804V371.394Z" stroke="white" stroke-miterlimit="10"/>
<path d="M718.604 386.349H411.141V693.646H718.604V386.349Z" stroke="white" stroke-miterlimit="10"/>
<path d="M661.41 401.304H383.873V678.691H661.41V401.304Z" stroke="white" stroke-miterlimit="10"/>
<path d="M604.221 416.264H356.61V663.742H604.221V416.264Z" stroke="white" stroke-miterlimit="10"/>
<path d="M547.021 431.219H329.342V648.781H547.021V431.219Z" stroke="white" stroke-miterlimit="10"/>
<path d="M489.827 446.174H302.073V633.827H489.827V446.174Z" stroke="white" stroke-miterlimit="10"/>
<path d="M432.628 461.129H274.805V618.867H432.628V461.129Z" stroke="white" stroke-miterlimit="10"/>
<path d="M375.433 476.089H247.537V603.917H375.433V476.089Z" stroke="white" stroke-miterlimit="10"/>
<path d="M318.234 491.044H220.268V588.957H318.234V491.044Z" stroke="white" stroke-miterlimit="10"/>
</g>
<defs>
<clipPath id="clip0_8_796">
<rect width="1700" height="936" fill="white" transform="translate(220 72)"/>
</clipPath>
</defs>
</svg>
